<svg id="Capa_1" enable-background="new 0 0 512.416 512.416" height="512" viewBox="0 0 512.416 512.416" width="512" xmlns="http://www.w3.org/2000/svg"><path d="m505.461 396.308-40.253-54.071v-227.029c0-30.327-24.673-55-55-55h-308c-30.327 0-55 24.673-55 55v227.029l-40.253 54.071c-7.951 10.682-9.178 24.709-3.201 36.608 5.976 11.899 17.961 19.292 31.276 19.292h442.355c13.315 0 25.301-7.392 31.276-19.292 5.978-11.899 4.751-25.926-3.2-36.608zm-428.253-281.1c0-13.785 11.215-25 25-25h308c13.785 0 25 11.215 25 25v217h-358zm404.646 304.244c-.517 1.029-1.784 2.756-4.468 2.756h-442.356c-2.684 0-3.951-1.727-4.468-2.756-.518-1.029-1.146-3.078.457-5.23l38.722-52.014h372.934l38.722 52.014c1.602 2.153.974 4.201.457 5.23z"/><path d="m297.208 120.208h-82c-8.284 0-15 6.716-15 15s6.716 15 15 15h82c8.284 0 15-6.716 15-15s-6.716-15-15-15z"/></svg>