<?xml version="1.0" encoding="utf-8"?>
<!-- Generator: Adobe Illustrator 25.2.1, SVG Export Plug-In . SVG Version: 6.00 Build 0)  -->
<svg version="1.1" id="Layer_1" xmlns="http://www.w3.org/2000/svg" xmlns:xlink="http://www.w3.org/1999/xlink" x="0px" y="0px"
	 viewBox="0 0 470.6 330.8" style="enable-background:new 0 0 470.6 330.8;" xml:space="preserve">
<g>
	<path d="M470.1,195.2c0-8.3-6.7-14.9-15-14.9c-8.2,0-15-6.7-15-14.9c0-8.2,6.7-15,14.9-15c8.3,0,14.9-6.7,14.9-15l-0.1-89.7
		c0-8.3-6.7-14.9-15-14.9c-4,0-7.8-1.5-10.6-4.4c-2.8-2.8-4.4-6.6-4.4-10.6c0-8.2-6.7-14.9-14.9-14.9L45.1,1c-4,0-7.8,1.6-10.6,4.4
		C31.8,8.2,30.2,12,30.2,16c0,8.2-6.7,15-14.9,15c-4,0-7.8,1.6-10.6,4.4c-2.8,2.8-4.4,6.6-4.4,10.6l0.1,89.7c0,8.3,6.7,14.9,15,14.9
		c8.2,0,15,6.7,15,14.9c0,8.2-6.7,15-14.9,15c-8.3,0-14.9,6.7-14.9,15l0.1,89.7c0,8.3,6.7,14.9,15,14.9c4,0,7.8,1.5,10.6,4.4
		c2.8,2.8,4.4,6.6,4.4,10.6c0,8.2,6.7,14.9,14.9,14.9l379.8-0.1c4,0,7.8-1.6,10.6-4.4c2.8-2.8,4.4-6.6,4.4-10.6
		c0-8.2,6.7-15,14.9-15c4,0,7.8-1.6,10.6-4.4c2.8-2.8,4.4-6.6,4.4-10.6L470.1,195.2z M423.5,283.1c-4.8,4.8-8.4,10.5-10.6,16.8
		l-282.5,0l0-15.9c0-8.3-6.7-14.9-15-14.9c-8.3,0-14.9,6.7-14.9,15l0,15.8l-42.6,0c-2.2-6.2-5.8-12-10.6-16.8
		c-4.8-4.8-10.5-8.4-16.8-10.6l-0.1-64.9c17.4-6.2,29.9-22.8,29.8-42.3c0-19.5-12.5-36.1-30-42.2l-0.1-64.9
		C36.5,56,42.2,52.5,47,47.6c4.8-4.8,8.4-10.5,10.6-16.8l42.9,0l-0.2,13.8c-0.1,8.2,6.4,15.1,14.7,15.2c8.3,0.1,15.1-6.4,15.2-14.7
		l0.2-14.3l282.2,0c2.2,6.2,5.8,12,10.6,16.8c4.8,4.8,10.5,8.4,16.8,10.6l0.1,64.9c-17.4,6.2-29.9,22.8-29.8,42.3
		c0,19.5,12.6,36.1,30,42.2l0.1,64.9C434,274.7,428.3,278.3,423.5,283.1z"/>
	<path d="M115.3,149.6c8.3,0,14.9-6.7,14.9-15l0-29.9c0-8.3-6.7-14.9-15-14.9c-8.3,0-14.9,6.7-14.9,15l0,29.9
		C100.4,142.9,107.1,149.6,115.3,149.6z"/>
	<path d="M115.4,179.4c-8.3,0-14.9,6.7-14.9,15l0,29.9c0,8.3,6.7,14.9,15,14.9c8.3,0,14.9-6.7,14.9-15l0-29.9
		C130.3,186.1,123.6,179.4,115.4,179.4z"/>
	<path d="M322.6,97.1c-4.5-0.8-8.9,2.4-11.7,4.8c-3.6,3-6.8,6.5-9.6,10.3c-2.6,3.5-5.9,8-10,13.3c-4.1,5.4-8.5,11.6-12.9,18.2
		c-0.9,1.4-1.7,2.5-2.4,3.4c-1-2.3-2.1-4.5-3.4-6.6c-0.9-1.5-3.6-6.2-10.9-20.7c-6.5-12.8-11.7-20.4-16.4-24
		c-4.6-3.5-8.5-5.7-12.1-6.7c-6.4-1.8-9.6,0.5-11.1,2.7l-0.1,0.2c-1.2,1.9-1.9,4-2.1,6.1c-0.2,2.1,0.3,4.7,1.6,8
		c1.2,3.1,3.4,6.7,6.7,11.2c3,3.9,7.4,10.2,13.2,18.7c5.7,8.4,9.9,14.9,12.4,19.3c2.6,4.6,5.1,8.6,7.2,11.7c1.7,2.5,2,3.7,2,4
		c-0.2,0.7-1.3,3.8-7.2,14.6c-5.1,9.3-8.7,16.6-10.9,21.8c-2.1,5-3.7,8.9-4.7,11.6c-1.1,2.9-1.9,6-2.4,9.2c-0.7,4,0.1,8.2,2.4,12.7
		c1.6,3.1,3.5,6.5,7.1,6.9c0.2,0,0.4,0,0.7,0c1.7,0,3.3-0.8,4.4-2.1c1.1-1.3,2.3-3.3,3.6-6.2c1.1-2.4,4.3-9.5,9.5-21.7
		c5-11.7,8.9-19.6,11.5-23.5c2.9-4.4,6.1-10.3,9.5-17.8c3.3-7,7.3-14.2,12.1-21.5c4.7-7.2,10.4-14.4,16.9-21.5
		c9.2-9.9,10.9-11.9,11.5-12.6c1.2-1.5,2.3-3.7,3.5-7.1c1.4-4,1.4-7.7-0.1-10.8C328.3,98.9,325,97.5,322.6,97.1z"/>
</g>
</svg>
